<svg id="Layer_1" data-name="Layer 1" xmlns="http://www.w3.org/2000/svg" viewBox="0 0 239.73 81.35"><defs><style>.cls-1{fill:#231f20;}.cls-2{fill:#fff;}.cls-3{fill:none;stroke:#ef4136;stroke-miterlimit:10;stroke-width:1.5px;}</style></defs><rect class="cls-1" width="239.73" height="81.35"/><path class="cls-2" d="M197.5,60.88C194.75,63.7,190.75,66,186.64,66c-9.59.12-16.64-7.31-16.76-17.32-.12-9.6,7.3-17.61,16.48-17.73,4.1,0,8,2.13,10.84,4.88v-.37a4.5,4.5,0,0,1,4.45-4.55l1.41,0,.42,34.77-5.91.07Zm-10.79-1.12c6.19-.07,10.37-5.27,10.29-11.39s-4.38-11.21-10.57-11.14c-5.77.07-10.37,5.28-10.29,11.39S180.94,59.83,186.71,59.76Z"/><path class="cls-2" d="M19.13,17.09l2.41,0a4.49,4.49,0,0,1,4.55,4.44l.49,40,18.9-.23A4.5,4.5,0,0,1,50,65.71l0,2-30.31.37Z"/><path class="cls-2" d="M53.64,20.13A4.87,4.87,0,1,1,62,23.46a4.87,4.87,0,0,1-8.34-3.33Zm1.7,12.52,2,0A4.63,4.63,0,0,1,62,37.18l.37,30.36-6.64.08Z"/><path class="cls-2" d="M67.28,32.43l3.81,0a5.66,5.66,0,0,1,5.33,3.55L85.79,59,94.22,35.7A5.54,5.54,0,0,1,99.37,32l3.25,0L89.29,67.21,82,67.3Z"/><path class="cls-2" d="M165.18,36.91l-9.29.11.19,15.48c0,1,0,1.91.11,2.84a7.4,7.4,0,0,0,.57,2.51,4.08,4.08,0,0,0,1.46,1.79,4.93,4.93,0,0,0,2.85.65,13.08,13.08,0,0,0,2.37-.25,6.62,6.62,0,0,0,2.23-.82l.07,5.91a8.44,8.44,0,0,1-3,.93,23.48,23.48,0,0,1-2.84.29,13.18,13.18,0,0,1-5.81-1,7.12,7.12,0,0,1-3.05-2.67,8.47,8.47,0,0,1-1.2-3.69c-.14-1.37-.21-2.75-.23-4.14l-.22-17.78-7.49.09-.06-5.62,7.48-.09-.11-9.57,2,0a4.5,4.5,0,0,1,4.55,4.45l.06,5.07,9.29-.11Z"/><path class="cls-2" d="M211.09,11.29l2,0a4.5,4.5,0,0,1,4.56,4.45l.61,49.93-6.48.08Z"/><path class="cls-3" d="M104.57,49.65a17.49,17.49,0,0,1,1.4-7A18.23,18.23,0,0,1,109.82,37a17.89,17.89,0,0,1,5.76-3.86,18.86,18.86,0,0,1,14.26,0,18,18,0,0,1,9.61,9.54,17.32,17.32,0,0,1,1.41,7,17.8,17.8,0,0,1-5.26,12.71,18.25,18.25,0,0,1-5.76,3.81,18.86,18.86,0,0,1-14.26,0,18.25,18.25,0,0,1-5.76-3.81,17.74,17.74,0,0,1-5.25-12.71Zm6.91,0a14,14,0,0,0,.79,4.79,10.82,10.82,0,0,0,2.23,3.74A10.39,10.39,0,0,0,118,60.63a12.62,12.62,0,0,0,9.36,0,10.39,10.39,0,0,0,3.53-2.45,10.82,10.82,0,0,0,2.23-3.74,14.92,14.92,0,0,0,0-9.58,10.82,10.82,0,0,0-2.23-3.74,10.26,10.26,0,0,0-3.53-2.45,12.62,12.62,0,0,0-9.36,0,10.26,10.26,0,0,0-3.53,2.45,10.82,10.82,0,0,0-2.23,3.74A14,14,0,0,0,111.48,49.65Z"/></svg>